<svg width="16" height="15" viewBox="0 0 16 15" fill="none" xmlns="http://www.w3.org/2000/svg">
<g clip-path="url(#clip0_1_1607)">
<path d="M3.17234 1.87518L12.7003 1.87518C13.0292 1.87518 13.2958 2.1418 13.2958 2.47068L13.2958 13.9497C13.2958 14.1142 13.1625 14.2475 12.9981 14.2475C12.9563 14.2475 12.915 14.2386 12.8768 14.2216L7.93634 12.0173L2.99591 14.2216C2.84574 14.2887 2.66969 14.2212 2.60268 14.0711C2.58564 14.0328 2.57684 13.9915 2.57684 13.9497L2.57684 2.47068C2.57684 2.1418 2.84346 1.87518 3.17234 1.87518ZM12.1048 12.573L12.1048 3.06618L3.76784 3.06618L3.76784 12.573L7.93634 10.7131L12.1048 12.573ZM7.93634 8.72343L6.18621 9.64353L6.52046 7.6947L5.10457 6.31458L7.06125 6.03026L7.93634 4.25718L8.81142 6.03026L10.7681 6.31458L9.3522 7.6947L9.68645 9.64353L7.93634 8.72343Z" fill="#878787"/>
</g>
<defs>
<clipPath id="clip0_1_1607">
<rect width="14.292" height="14.292" fill="white" transform="translate(0.790283 0.684235)"/>
</clipPath>
</defs>
</svg>
