<svg width="17" height="18" viewBox="0 0 17 18" fill="none" xmlns="http://www.w3.org/2000/svg">
<path d="M4.29327 13.0071C4.43168 12.6148 4.68836 12.2751 5.02792 12.0349C5.36749 11.7946 5.77322 11.6656 6.18919 11.6656C6.60516 11.6656 7.0109 11.7946 7.35046 12.0349C7.69003 12.2751 7.9467 12.6148 8.08511 13.0071L14.8984 13.0071L14.8984 14.3469L8.08511 14.3469C7.9467 14.7392 7.69003 15.0789 7.35046 15.3192C7.0109 15.5594 6.60516 15.6885 6.18919 15.6885C5.77322 15.6885 5.36749 15.5594 5.02792 15.3192C4.68836 15.0789 4.43168 14.7392 4.29327 14.3469H1.49963L1.49963 13.0071H4.29327ZM8.31289 8.31751C8.4513 7.92524 8.70798 7.58556 9.04754 7.34529C9.38711 7.10502 9.79284 6.976 10.2088 6.976C10.6248 6.976 11.0305 7.10502 11.3701 7.34529C11.7096 7.58556 11.9663 7.92524 12.1047 8.31751H14.8984L14.8984 9.65739H12.1047C11.9663 10.0497 11.7096 10.3893 11.3701 10.6296C11.0305 10.8699 10.6248 10.9989 10.2088 10.9989C9.79284 10.9989 9.38711 10.8699 9.04754 10.6296C8.70798 10.3893 8.4513 10.0497 8.31289 9.65739L1.49963 9.65739L1.49963 8.31751L8.31289 8.31751ZM4.29327 3.62795C4.43168 3.23568 4.68836 2.896 5.02792 2.65573C5.36749 2.41547 5.77322 2.28644 6.18919 2.28644C6.60516 2.28644 7.0109 2.41547 7.35046 2.65573C7.69003 2.896 7.9467 3.23568 8.08511 3.62795L14.8984 3.62795V4.96783L8.08511 4.96783C7.9467 5.3601 7.69003 5.69978 7.35046 5.94005C7.0109 6.18032 6.60516 6.30934 6.18919 6.30934C5.77322 6.30934 5.36749 6.18032 5.02792 5.94005C4.68836 5.69978 4.43168 5.3601 4.29327 4.96783L1.49963 4.96783L1.49963 3.62795L4.29327 3.62795Z" fill="#878787"/>
</svg>
