<svg width="17" height="17" viewBox="0 0 17 17" fill="none" xmlns="http://www.w3.org/2000/svg">
<path d="M14.1455 5.47742L9.75739 1.96695C8.89987 1.28362 7.55999 1.27692 6.70917 1.96025L2.32109 5.47742C1.69135 5.97987 1.30948 6.98478 1.44347 7.7753L2.28759 12.8266C2.48187 13.9588 3.53367 14.8498 4.67926 14.8498L11.7806 14.8498C12.9128 14.8498 13.9847 13.9387 14.179 12.8199L15.0231 7.7686C15.1437 6.98478 14.7618 5.97987 14.1455 5.47742ZM8.73238 12.1701C8.73238 12.4448 8.5046 12.6725 8.22993 12.6725C7.95526 12.6725 7.72748 12.4448 7.72748 12.1701L7.72748 10.1603C7.72748 9.8856 7.95526 9.65783 8.22993 9.65783C8.5046 9.65783 8.73238 9.8856 8.73238 10.1603V12.1701Z" fill="#4FAF5A"/>
</svg>
