<svg width="17" height="17" viewBox="0 0 17 17" fill="none" xmlns="http://www.w3.org/2000/svg">
<g clip-path="url(#clip0_1_1526)">
<path d="M8.62329 12.824L11.4658 9.98209C12.0279 9.4199 12.4107 8.70368 12.5657 7.92396C12.7208 7.14425 12.6411 6.33608 12.3369 5.60162C12.0326 4.86717 11.5174 4.23944 10.8564 3.79778C10.1954 3.35613 9.41827 3.1204 8.62329 3.1204C7.82831 3.1204 7.05119 3.35613 6.39018 3.79778C5.72917 4.23944 5.21397 4.86717 4.90971 5.60162C4.60546 6.33608 4.52581 7.14425 4.68086 7.92396C4.8359 8.70368 5.21866 9.4199 5.78075 9.98209L8.62329 12.824ZM12.4131 10.9294L8.62329 14.7192L4.83346 10.9294C4.08395 10.1798 3.57353 9.22486 3.36676 8.18522C3.15998 7.14559 3.26613 6.06799 3.67179 5.08868C4.07745 4.10938 4.76439 3.27236 5.64574 2.68346C6.5271 2.09456 7.5633 1.78024 8.62329 1.78024C9.68329 1.78024 10.7195 2.09456 11.6008 2.68346C12.4822 3.27236 13.1691 4.10938 13.5748 5.08868C13.9804 6.06799 14.0866 7.14559 13.8798 8.18522C13.673 9.22486 13.1626 10.1798 12.4131 10.9294ZM3.93373 15.1788L13.3128 15.1788L13.3128 16.5187L3.93373 16.5187L3.93373 15.1788Z" fill="#4FAF5A"/>
</g>
<defs>
<clipPath id="clip0_1_1526">
<rect width="16.0785" height="16.0785" fill="white" transform="translate(0.584045 0.440155)"/>
</clipPath>
</defs>
</svg>
