<svg width="18" height="17" viewBox="0 0 18 17" fill="none" xmlns="http://www.w3.org/2000/svg">
<path d="M13.6753 11.8289L13.6753 8.34526C13.3403 8.41225 13.0054 8.47925 12.6704 8.47925H12.3354L12.3354 12.4989L5.63605 12.4989L5.63605 7.80931C5.63605 5.93349 7.10991 4.45962 8.98573 4.45962C9.05272 3.58871 9.45469 2.85178 9.99064 2.24883C9.78966 1.98086 9.38769 1.77988 8.98573 1.77988C8.2488 1.77988 7.64586 2.38282 7.64586 3.11975V3.32073C5.63605 3.92368 4.29617 5.7325 4.29617 7.80931L4.29617 11.8289L2.9563 13.1688L2.9563 13.8387L15.0152 13.8387L15.0152 13.1688L13.6753 11.8289ZM7.64586 14.5087C7.64586 15.2456 8.2488 15.8486 8.98573 15.8486C9.72266 15.8486 10.3256 15.2456 10.3256 14.5087H7.64586Z" fill="#101010"/>
<circle cx="13.0053" cy="3.56638" r="2.23312" fill="#C01212"/>
</svg>
