<svg width="16" height="15" viewBox="0 0 16 15" fill="none" xmlns="http://www.w3.org/2000/svg">
<path d="M12.8415 13.785L3.31352 13.785C2.98463 13.785 2.71802 13.5184 2.71802 13.1895L2.71802 2.47052C2.71802 2.14164 2.98463 1.87502 3.31352 1.87502L12.8415 1.87502C13.1704 1.87502 13.437 2.14164 13.437 2.47052L13.437 13.1895C13.437 13.5184 13.1704 13.785 12.8415 13.785ZM12.246 12.594L12.246 3.06602L3.90902 3.06602L3.90902 12.594L12.246 12.594ZM6.29101 4.25702L6.29101 5.44802C6.29101 6.43467 7.09084 7.23452 8.07752 7.23452C9.06415 7.23452 9.86402 6.43467 9.86402 5.44802L9.86402 4.25702L11.055 4.25702L11.055 5.44802C11.055 7.09243 9.72194 8.42552 8.07752 8.42552C6.43309 8.42552 5.10002 7.09243 5.10002 5.44802L5.10002 4.25702L6.29101 4.25702Z" fill="#878787"/>
</svg>
