<svg width="17" height="17" viewBox="0 0 17 17" fill="none" xmlns="http://www.w3.org/2000/svg">
<path d="M8.36795 15.4227C4.66799 15.4227 1.66858 12.4233 1.66858 8.72336C1.66858 5.0234 4.66799 2.02399 8.36795 2.02399C12.0679 2.02399 15.0673 5.0234 15.0673 8.72336C15.0673 12.4233 12.0679 15.4227 8.36795 15.4227ZM8.36795 14.0829C11.3279 14.0829 13.7274 11.6833 13.7274 8.72336C13.7274 5.76339 11.3279 3.36387 8.36795 3.36387C5.40798 3.36387 3.00845 5.76339 3.00845 8.72336C3.00845 11.6833 5.40798 14.0829 8.36795 14.0829ZM5.01826 8.72336L6.35814 8.72336C6.35814 9.83338 7.25793 10.7332 8.36795 10.7332C9.47797 10.7332 10.3778 9.83338 10.3778 8.72336H11.7176C11.7176 10.5733 10.2179 12.073 8.36795 12.073C6.51797 12.073 5.01826 10.5733 5.01826 8.72336Z" fill="#878787"/>
</svg>
