<svg width="16" height="16" viewBox="0 0 16 16" fill="none" xmlns="http://www.w3.org/2000/svg">
<path d="M11.3987 9.51024C11.2445 9.65971 11.1736 9.87588 11.2088 10.0879L11.7382 13.0177C11.7828 13.2661 11.678 13.5174 11.4702 13.6609C11.2665 13.8097 10.9956 13.8276 10.7735 13.7085L8.13601 12.3329C8.0443 12.2841 7.94247 12.2579 7.83826 12.2549H7.67688C7.6209 12.2632 7.56611 12.2811 7.51609 12.3085L4.87803 13.6906C4.74762 13.7562 4.59993 13.7794 4.45523 13.7562C4.10269 13.6895 3.86747 13.3536 3.92523 12.9993L4.45523 10.0694C4.49036 9.85563 4.4195 9.63827 4.26526 9.48642L2.11491 7.40217C1.93507 7.22769 1.87254 6.96567 1.95472 6.72926C2.03452 6.49344 2.23818 6.32134 2.48412 6.28263L5.44375 5.85328C5.66885 5.83005 5.86656 5.69309 5.96779 5.49062L7.27194 2.81683C7.3029 2.75728 7.3428 2.70249 7.39104 2.65604L7.44463 2.61436C7.47262 2.58339 7.50478 2.55778 7.54051 2.53694L7.60542 2.51312L7.70665 2.47144L7.95736 2.47144C8.18127 2.49466 8.37838 2.62865 8.4814 2.82874L9.80281 5.49062C9.89809 5.68535 10.0833 5.82052 10.2971 5.85328L13.2567 6.28263C13.5068 6.31836 13.7158 6.49106 13.7986 6.72926C13.8766 6.96805 13.8093 7.23007 13.6259 7.40217L11.3987 9.51024Z" fill="#F2B90D"/>
</svg>
