<svg width="17" height="18" viewBox="0 0 17 18" fill="none" xmlns="http://www.w3.org/2000/svg">
<path d="M12.8095 12.0804L15.6788 14.9491L14.7308 15.897L11.8622 13.0277C10.7948 13.8833 9.46715 14.3487 8.09913 14.3468C4.77089 14.3468 2.0697 11.6456 2.0697 8.31736C2.0697 4.98912 4.77089 2.28793 8.09913 2.28793C11.4274 2.28793 14.1286 4.98912 14.1286 8.31736C14.1305 9.68538 13.6651 11.013 12.8095 12.0804ZM11.4656 11.5833C12.3158 10.709 12.7906 9.53694 12.7887 8.31736C12.7887 5.72672 10.6898 3.62781 8.09913 3.62781C5.50849 3.62781 3.40958 5.72672 3.40958 8.31736C3.40958 10.908 5.50849 13.0069 8.09913 13.0069C9.31871 13.0088 10.4907 12.534 11.3651 11.6838L11.4656 11.5833Z" fill="#878787"/>
</svg>
